HIERARCHY
ROOT Hips
{
  OFFSET 5.80788e-005 67.184 3.4734
  CHANNELS 6 Xposition Yposition Zposition Zrotation Xrotation Yrotation
  JOINT Chest
  {
    OFFSET 0 8.7983 -4.7612
    CHANNELS 6 Xposition Yposition Zposition Zrotation Xrotation Yrotation
    JOINT Chest2
    {
      OFFSET 0 8.0291 0.4195
      CHANNELS 6 Xposition Yposition Zposition Zrotation Xrotation Yrotation
      JOINT Chest3
      {
        OFFSET 0 9.9351 -2.2114
        CHANNELS 6 Xposition Yposition Zposition Zrotation Xrotation Yrotation
        JOINT Neck
        {
          OFFSET 0 22.3885 -0.4656
          CHANNELS 6 Xposition Yposition Zposition Zrotation Xrotation Yrotation
          JOINT Head
          {
            OFFSET -0.0001 12.643 3.4389
            CHANNELS 6 Xposition Yposition Zposition Zrotation Xrotation Yrotation
            End Site
            {
              OFFSET 0.0001 17.6655 0.5274
            }
          }
        }
        JOINT LeftCollar
        {
          OFFSET 2.2603 21.606 7.4023
          CHANNELS 6 Xposition Yposition Zposition Zrotation Xrotation Yrotation
          JOINT LeftShoulder
          {
            OFFSET 13.5163 -1.1332 -5.0146
            CHANNELS 6 Xposition Yposition Zposition Zrotation Xrotation Yrotation
            JOINT LeftElbow
            {
              OFFSET -0.0995 -28.05 -0.2431
              CHANNELS 6 Xposition Yposition Zposition Zrotation Xrotation Yrotation
              JOINT LeftWrist
              {
                OFFSET 0.0679 -23.3996 -0.1402
                CHANNELS 6 Xposition Yposition Zposition Zrotation Xrotation Yrotation
                JOINT LeftFinger1
                {
                  OFFSET 0.7932 -9.069 2.5189
                  CHANNELS 6 Xposition Yposition Zposition Zrotation Xrotation Yrotation
                  JOINT LeftFinger11
                  {
                    OFFSET -0.8272 -3.3923 0.5977
                    CHANNELS 6 Xposition Yposition Zposition Zrotation Xrotation Yrotation
                    JOINT LeftFinger12
                    {
                      OFFSET -0.5649 -2.3158 0.4082
                      CHANNELS 6 Xposition Yposition Zposition Zrotation Xrotation Yrotation
                      End Site
                      {
                        OFFSET -0.4919 -1.6479 0.2673
                      }
                    }
                  }
                }
                JOINT LeftFinger2
                {
                  OFFSET 0.9159 -9.2044 0.2193
                  CHANNELS 6 Xposition Yposition Zposition Zrotation Xrotation Yrotation
                  JOINT LeftFinger21
                  {
                    OFFSET 0.0117 -4.1944 -0.0248
                    CHANNELS 6 Xposition Yposition Zposition Zrotation Xrotation Yrotation
                    JOINT LeftFinger22
                    {
                      OFFSET 0.0071 -2.3249 -0.0142
                      CHANNELS 6 Xposition Yposition Zposition Zrotation Xrotation Yrotation
                      End Site
                      {
                        OFFSET -0.1475 -2.0882 0.0028
                      }
                    }
                  }
                }
                JOINT LeftFinger3
                {
                  OFFSET 0.6113 -8.7231 -2.0637
                  CHANNELS 6 Xposition Yposition Zposition Zrotation Xrotation Yrotation
                  JOINT LeftFinger31
                  {
                    OFFSET -0.1927 -3.8059 -0.2383
                    CHANNELS 6 Xposition Yposition Zposition Zrotation Xrotation Yrotation
                    JOINT LeftFinger32
                    {
                      OFFSET -0.1091 -2.1688 -0.1362
                      CHANNELS 6 Xposition Yposition Zposition Zrotation Xrotation Yrotation
                      End Site
                      {
                        OFFSET -0.2358 -1.9176 -0.0906
                      }
                    }
                  }
                }
                JOINT LeftFinger4
                {
                  OFFSET -0.6151 -8.0947 -3.5641
                  CHANNELS 6 Xposition Yposition Zposition Zrotation Xrotation Yrotation
                  JOINT LeftFinger41
                  {
                    OFFSET -0.4882 -2.341 -0.6462
                    CHANNELS 6 Xposition Yposition Zposition Zrotation Xrotation Yrotation
                    JOINT LeftFinger42
                    {
                      OFFSET -0.3575 -1.7167 -0.4742
                      CHANNELS 6 Xposition Yposition Zposition Zrotation Xrotation Yrotation
                      End Site
                      {
                        OFFSET -0.4187 -1.5237 -0.3496
                      }
                    }
                  }
                }
                JOINT LeftFinger0
                {
                  OFFSET -1.42 -1.8761 1.4223
                  CHANNELS 6 Xposition Yposition Zposition Zrotation Xrotation Yrotation
                  JOINT LeftFinger01
                  {
                    OFFSET -1.1471 -3.4929 2.6334
                    CHANNELS 6 Xposition Yposition Zposition Zrotation Xrotation Yrotation
                    JOINT LeftFinger02
                    {
                      OFFSET -0.823 -2.3 1.6571
                      CHANNELS 6 Xposition Yposition Zposition Zrotation Xrotation Yrotation
                      End Site
                      {
                        OFFSET -0.5822 -1.6914 1.1582
                      }
                    }
                  }
                }
              }
            }
          }
        }
        JOINT RightCollar
        {
          OFFSET -2.2603 21.606 7.4023
          CHANNELS 6 Xposition Yposition Zposition Zrotation Xrotation Yrotation
          JOINT RightShoulder
          {
            OFFSET -13.5187 -1.1334 -5.0155
            CHANNELS 6 Xposition Yposition Zposition Zrotation Xrotation Yrotation
            JOINT RightElbow
            {
              OFFSET 0.0994 -28.0499 -0.2431
              CHANNELS 6 Xposition Yposition Zposition Zrotation Xrotation Yrotation
              JOINT RightWrist
              {
                OFFSET -0.0679 -23.3996 -0.1402
                CHANNELS 6 Xposition Yposition Zposition Zrotation Xrotation Yrotation
                JOINT RightFinger1
                {
                  OFFSET -0.7932 -9.0691 2.5189
                  CHANNELS 6 Xposition Yposition Zposition Zrotation Xrotation Yrotation
                  JOINT RightFinger11
                  {
                    OFFSET 0.8272 -3.3923 0.5977
                    CHANNELS 6 Xposition Yposition Zposition Zrotation Xrotation Yrotation
                    JOINT RightFinger12
                    {
                      OFFSET 0.565 -2.3158 0.4082
                      CHANNELS 6 Xposition Yposition Zposition Zrotation Xrotation Yrotation
                      End Site
                      {
                        OFFSET 0.4919 -1.6479 0.2673
                      }
                    }
                  }
                }
                JOINT RightFinger2
                {
                  OFFSET -0.916 -9.2044 0.2193
                  CHANNELS 6 Xposition Yposition Zposition Zrotation Xrotation Yrotation
                  JOINT RightFinger21
                  {
                    OFFSET -0.0117 -4.1944 -0.0248
                    CHANNELS 6 Xposition Yposition Zposition Zrotation Xrotation Yrotation
                    JOINT RightFinger22
                    {
                      OFFSET -0.0071 -2.3249 -0.0142
                      CHANNELS 6 Xposition Yposition Zposition Zrotation Xrotation Yrotation
                      End Site
                      {
                        OFFSET 0.1475 -2.0882 0.0028
                      }
                    }
                  }
                }
                JOINT RightFinger3
                {
                  OFFSET -0.6113 -8.7231 -2.0637
                  CHANNELS 6 Xposition Yposition Zposition Zrotation Xrotation Yrotation
                  JOINT RightFinger31
                  {
                    OFFSET 0.1927 -3.8059 -0.2383
                    CHANNELS 6 Xposition Yposition Zposition Zrotation Xrotation Yrotation
                    JOINT RightFinger32
                    {
                      OFFSET 0.1091 -2.1688 -0.1362
                      CHANNELS 6 Xposition Yposition Zposition Zrotation Xrotation Yrotation
                      End Site
                      {
                        OFFSET 0.2358 -1.9176 -0.0906
                      }
                    }
                  }
                }
                JOINT RightFinger4
                {
                  OFFSET 0.6151 -8.0947 -3.564
                  CHANNELS 6 Xposition Yposition Zposition Zrotation Xrotation Yrotation
                  JOINT RightFinger41
                  {
                    OFFSET 0.4882 -2.341 -0.6462
                    CHANNELS 6 Xposition Yposition Zposition Zrotation Xrotation Yrotation
                    JOINT RightFinger42
                    {
                      OFFSET 0.3574 -1.7166 -0.4742
                      CHANNELS 6 Xposition Yposition Zposition Zrotation Xrotation Yrotation
                      End Site
                      {
                        OFFSET 0.4187 -1.5237 -0.3496
                      }
                    }
                  }
                }
                JOINT RightFinger0
                {
                  OFFSET 1.4199 -1.8761 1.4221
                  CHANNELS 6 Xposition Yposition Zposition Zrotation Xrotation Yrotation
                  JOINT RightFinger01
                  {
                    OFFSET 1.1472 -3.4929 2.6336
                    CHANNELS 6 Xposition Yposition Zposition Zrotation Xrotation Yrotation
                    JOINT RightFinger02
                    {
                      OFFSET 0.8229 -2.3 1.6571
                      CHANNELS 6 Xposition Yposition Zposition Zrotation Xrotation Yrotation
                      End Site
                      {
                        OFFSET 0.5822 -1.6914 1.1582
                      }
                    }
                  }
                }
              }
            }
          }
        }
      }
    }
  }
  JOINT RightHip
  {
    OFFSET -9.412 3.9771 -0.7758
    CHANNELS 6 Xposition Yposition Zposition Zrotation Xrotation Yrotation
    JOINT RightKnee
    {
      OFFSET -0.7531 -40.938 0
      CHANNELS 6 Xposition Yposition Zposition Zrotation Xrotation Yrotation
      JOINT RightAnkle
      {
        OFFSET 0 -40.1986 0
        CHANNELS 6 Xposition Yposition Zposition Zrotation Xrotation Yrotation
        JOINT RightToe
        {
          OFFSET 0 -4.4182 9.239
          CHANNELS 6 Xposition Yposition Zposition Zrotation Xrotation Yrotation
          End Site
          {
            OFFSET 0 0 6.1981
          }
        }
      }
    }
  }
  JOINT LeftHip
  {
    OFFSET 9.4119 3.9773 -0.7758
    CHANNELS 6 Xposition Yposition Zposition Zrotation Xrotation Yrotation
    JOINT LeftKnee
    {
      OFFSET 0.7532 -40.9383 0
      CHANNELS 6 Xposition Yposition Zposition Zrotation Xrotation Yrotation
      JOINT LeftAnkle
      {
        OFFSET 0 -40.1986 0
        CHANNELS 6 Xposition Yposition Zposition Zrotation Xrotation Yrotation
        JOINT LeftToe
        {
          OFFSET 0 -4.4182 9.239
          CHANNELS 6 Xposition Yposition Zposition Zrotation Xrotation Yrotation
          End Site
          {
            OFFSET 0 0 6.1981
          }
        }
      }
    }
  }
}
MOTION
Frames:	4
Frame Time:	0.0333333
5.80788e-005 67.184 3.4734 0 0 -0 0 8.7983 -4.7612 0 0 -0 0 8.0291 0.4195 0 0 -0 0 9.9351 -2.2114 0 0 -0 0 22.3885 -0.4656 0 0 -0 -0.0001 12.643 3.4389 0 0 -0 2.2603 21.606 7.4023 0 0 -12.5014 13.5163 -1.1332 -5.0146 88.1196 14.2451 10.6914 -0.0995 -28.05 -0.2431 -0.00160068 -0.00239207 0.000740045 0.0679 -23.3996 -0.1402 -8.4365e-005 7.00714e-005 -9.52055e-007 0.7932 -9.069 2.5189 9.93923e-017 -1.98785e-016 -1.59028e-015 -0.8272 -3.3923 0.5977 9.93923e-017 -5.96354e-016 -1.59028e-015 -0.5649 -2.3158 0.4082 -9.93923e-017 -5.96354e-016 -1.59028e-015 0.9159 -9.2044 0.2193 9.93923e-017 -1.98785e-016 -1.59028e-015 0.0117 -4.1944 -0.0248 -0.0128176 0.00232552 8.52707e-005 0.0071 -2.3249 -0.0142 9.93923e-017 5.96354e-016 -0 0.6113 -8.7231 -2.0637 9.93923e-017 -1.98785e-016 -1.59028e-015 -0.1927 -3.8059 -0.2383 -0.0160551 0.00299681 0.000857156 -0.1091 -2.1688 -0.1362 -2.48481e-016 0 3.18055e-015 -0.6151 -8.0947 -3.5641 9.93923e-017 -1.98785e-016 -1.59028e-015 -0.4882 -2.341 -0.6462 -0.0125865 0.0031206 0.00282719 -0.3575 -1.7167 -0.4742 0 1.98785e-016 -0 -1.42 -1.8761 1.4223 9.93923e-017 -1.98785e-016 -1.59028e-015 -1.1471 -3.4929 2.6334 9.93923e-017 -5.96354e-016 -1.59028e-015 -0.823 -2.3 1.6571 -9.93923e-017 -5.96354e-016 -1.59028e-015 -2.2603 21.606 7.4023 -0.865644 0.16582 7.03859 -13.5187 -1.1334 -5.0155 -88.0329 10.2057 -10.5567 0.0994 -28.0499 -0.2431 0.0015593 -0.00248883 -0.000788628 -0.0679 -23.3996 -0.1402 7.87605e-005 4.10553e-005 1.24965e-005 -0.7932 -9.0691 2.5189 -3.97569e-016 -7.95139e-016 3.18055e-015 0.8272 -3.3923 0.5977 -1.98785e-016 -3.97569e-016 3.18055e-015 0.565 -2.3158 0.4082 -1.98785e-016 0 3.18055e-015 -0.916 -9.2044 0.2193 -3.97569e-016 -7.95139e-016 3.18055e-015 -0.0117 -4.1944 -0.0248 0.0129473 0.00231697 -8.70038e-005 -0.0071 -2.3249 -0.0142 9.93923e-017 -7.95139e-016 1.59028e-015 -0.6113 -8.7231 -2.0637 -3.97569e-016 -7.95139e-016 3.18055e-015 0.1927 -3.8059 -0.2383 0.0163314 0.00303369 -0.000872333 0.1091 -2.1688 -0.1362 3.97569e-016 7.95139e-016 -3.18055e-015 0.6151 -8.0947 -3.564 -3.97569e-016 -7.95139e-016 3.18055e-015 0.4882 -2.341 -0.6462 0.0145763 0.00367772 -0.00326275 0.3574 -1.7166 -0.4742 9.93923e-017 -3.97569e-016 -0 1.4199 -1.8761 1.4221 -3.97569e-016 -7.95139e-016 3.18055e-015 1.1472 -3.4929 2.6336 -1.98785e-016 -3.97569e-016 3.18055e-015 0.8229 -2.3 1.6571 -1.98785e-016 0 3.18055e-015 -9.412 3.9771 -0.7758 3.42485 1.36937 -0.0640303 -0.7531 -40.938 0 0.000136572 0.69354 0.00145564 1.77636e-015 -40.1986 -1.11022e-016 -3.42573 -2.06297 -0.0607933 8.88178e-016 -4.4182 9.239 -3.19502e-024 0 -1.48106e-024 9.4119 3.9773 -0.7758 -3.42498 1.36123 0.0639712 0.7532 -40.9383 2.22045e-016 -6.769e-005 0.712612 -0.0012277 8.88179e-016 -40.1986 0 3.42582 -2.07388 0.0612819 -8.88178e-016 -4.4182 9.239 2.55305e-023 0 -2.31416e-026 
1.35844 9.7449 31.9898 -7.01671e-015 7.01671e-015 180 2.22045e-016 8.7983 -4.7612 -0.000199769 -0.157142 -0.0897454 2.22045e-016 8.0291 0.4195 -0.000645682 -0.314283 -0.179492 0 9.9351 -2.2114 -0.000645648 -0.314273 -0.179487 0 22.3885 -0.4656 -0.120646 0.185939 -0.000661788 -0.0001 12.643 3.4389 -3.0305e-008 -0.1801 -2.66503e-007 2.2603 21.606 7.4023 -8.14982 -0.050722 -12.3217 13.5163 -1.1332 -5.0146 35.1604 -37.8982 22.2992 -0.0995 -28.05 -0.2431 -12.5889 -31.0443 -6.22196 0.0679 -23.3996 -0.1402 -30.8438 23.4061 12.6805 0.7932 -9.06901 2.5189 2.8249e-030 -1.27222e-014 1.27222e-014 -0.8272 -3.3923 0.5977 6.36111e-015 -6.36111e-015 9.54166e-015 -0.5649 -2.3158 0.4082 1.08335e-006 -1.2456e-006 3.4423e-006 0.9159 -9.20441 0.2193 2.8249e-030 -1.27222e-014 1.27222e-014 0.0117 -4.1944 -0.0248 -0.0128019 0.00232858 9.658e-005 0.0071 -2.3249 -0.0142 2.00849e-006 -2.44359e-006 2.35349e-006 0.6113 -8.72311 -2.0637 2.8249e-030 -1.27222e-014 1.27222e-014 -0.1927 -3.8059 -0.2383 -0.0160684 0.0029987 0.000864655 -0.1091 -2.1688 -0.1362 -9.54166e-015 -3.73375e-006 3.18055e-015 -0.6151 -8.09471 -3.5641 2.8249e-030 -1.27222e-014 1.27222e-014 -0.4882 -2.341 -0.6462 -0.0125857 0.00311758 0.00283243 -0.3575 -1.7167 -0.4742 -4.20403e-006 -1.90168e-006 4.94596e-006 -1.42 -1.8761 1.4223 2.8249e-030 -1.27222e-014 1.27222e-014 -1.1471 -3.4929 2.6334 6.36111e-015 -6.36111e-015 9.54166e-015 -0.823 -2.3 1.6571 1.08335e-006 -1.2456e-006 3.4423e-006 -2.2603 21.606 7.4023 7.28121 0.11746 6.85334 -13.5187 -1.1334 -5.0155 -31.4683 -39.6243 -16.9764 0.0994 -28.0499 -0.2431 17.829 -44.3904 10.6961 -0.0679 -23.3996 -0.1402 30.8202 23.7179 -11.6546 -0.7932 -9.06911 2.5189 -6.36111e-015 0 1.59028e-015 0.8272 -3.3923 0.5977 -3.18055e-015 0 -0 0.565 -2.3158 0.4082 0 0 -0 -0.916 -9.20441 0.2193 -6.36111e-015 0 1.59028e-015 -0.0117 -4.1944 -0.0248 0.0129377 0.00232623 -8.87154e-005 -0.0071 -2.3249 -0.0142 3.18055e-015 -1.27222e-014 -1.59028e-015 -0.6113 -8.7231 -2.0637 -6.36111e-015 0 1.59028e-015 0.1927 -3.8059 -0.2383 0.0163205 0.0030332 -0.000876439 0.1091 -2.1688 -0.1362 -6.36111e-015 0 -1.59028e-015 0.6151 -8.0947 -3.564 -6.36111e-015 0 1.59028e-015 0.4882 -2.341 -0.6462 0.0145556 0.00367629 -0.00326462 0.3574 -1.7166 -0.4742 -8.82781e-032 3.18055e-015 1.59028e-015 1.4199 -1.8761 1.4221 -6.36111e-015 0 1.59028e-015 1.1472 -3.4929 2.6336 -3.18055e-015 0 -0 0.8229 -2.3 1.6571 0 0 -0 -9.412 3.9771 -0.7758 -35.1234 -52.606 -39.8978 -0.7531 -40.938 -3.55271e-015 -168.019 23.0373 169.812 3.55271e-015 -40.1986 -1.77636e-015 -7.12874 49.2353 -17.5129 -3.55271e-015 -4.4182 9.239 2.38542e-015 1.27222e-014 -0 9.4119 3.9773 -0.7758 35.1138 -52.6088 39.8872 0.7532 -40.9383 2.22045e-015 168.019 23.037 -169.816 0 -40.1986 -1.77636e-015 7.12893 49.2345 17.5084 -8.88178e-016 -4.4182 9.239 -4.14281e-006 -2.54603e-006 1.28611e-006 
1.35844 9.7449 31.9898 -7.01671e-015 7.01671e-015 180 2.22045e-016 8.7983 -4.7612 -0.000199769 -0.157142 -0.0897454 2.22045e-016 8.0291 0.4195 -0.000645682 -0.314283 -0.179492 0 9.9351 -2.2114 -0.000645648 -0.314273 -0.179487 0 22.3885 -0.4656 -0.120646 0.185939 -0.000661788 -0.0001 12.643 3.4389 -0.0835327 -0.361864 -0.0542657 2.2603 21.606 7.4023 -8.14982 -0.050722 -12.3217 13.5163 -1.1332 -5.0146 35.1605 -37.8981 22.2992 -0.0995 -28.05 -0.2431 -12.5493 -30.9279 -6.18704 0.0679 -23.3996 -0.1402 -30.8438 23.4061 12.6805 0.7932 -9.069 2.5189 2.18143e-006 2.6091e-006 -2.0247e-007 -0.8272 -3.3923 0.5977 -4.16801e-006 5.32165e-007 -6.88038e-006 -0.5649 -2.3158 0.4082 -1.07789e-006 5.10839e-007 -3.44574e-006 0.9159 -9.2044 0.2193 2.18143e-006 2.6091e-006 -2.0247e-007 0.0117 -4.1944 -0.0248 -0.0128193 0.00231539 7.91727e-005 0.0071 -2.3249 -0.0142 -1.08623e-006 6.19102e-006 -1.08113e-006 0.6113 -8.7231 -2.0637 2.18143e-006 2.6091e-006 -2.0247e-007 -0.1927 -3.8059 -0.2383 -0.0160513 0.00298885 0.000846895 -0.1091 -2.1688 -0.1362 -2.16353e-006 4.09365e-006 -4.52697e-006 -0.6151 -8.0947 -3.5641 2.18143e-006 2.6091e-006 -2.0247e-007 -0.4882 -2.341 -0.6462 -0.0126026 0.00312591 0.00282122 -0.3575 -1.7167 -0.4742 -1.07743e-006 5.11095e-007 -3.44586e-006 -1.42 -1.8761 1.4223 2.18143e-006 2.6091e-006 -2.0247e-007 -1.1471 -3.4929 2.6334 -4.16801e-006 5.32165e-007 -6.88038e-006 -0.823 -2.3 1.6571 -1.07789e-006 5.10839e-007 -3.44574e-006 -2.2603 21.606 7.4023 7.28121 0.11746 6.85334 -13.5187 -1.1334 -5.0155 -31.4683 -39.6243 -16.9764 0.0994 -28.0499 -0.2431 17.829 -44.3904 10.6961 -0.0679 -23.3996 -0.1402 30.8202 23.7179 -11.6546 -0.7932 -9.06911 2.5189 -6.36111e-015 0 1.59028e-015 0.8272 -3.3923 0.5977 -3.18055e-015 0 -0 0.565 -2.3158 0.4082 0 0 -0 -0.916 -9.20441 0.2193 -6.36111e-015 0 1.59028e-015 -0.0117 -4.1944 -0.0248 0.0129377 0.00232623 -8.87154e-005 -0.0071 -2.3249 -0.0142 3.18055e-015 -1.27222e-014 -1.59028e-015 -0.6113 -8.7231 -2.0637 -6.36111e-015 0 1.59028e-015 0.1927 -3.8059 -0.2383 0.0163205 0.0030332 -0.000876439 0.1091 -2.1688 -0.1362 -6.36111e-015 0 -1.59028e-015 0.6151 -8.0947 -3.564 -6.36111e-015 0 1.59028e-015 0.4882 -2.341 -0.6462 0.0145556 0.00367629 -0.00326462 0.3574 -1.7166 -0.4742 -8.82781e-032 3.18055e-015 1.59028e-015 1.4199 -1.8761 1.4221 -6.36111e-015 0 1.59028e-015 1.1472 -3.4929 2.6336 -3.18055e-015 0 -0 0.8229 -2.3 1.6571 0 0 -0 -9.412 3.9771 -0.7758 -35.1234 -52.606 -39.8978 -0.7531 -40.938 -3.55271e-015 -168.019 23.0373 169.812 3.55271e-015 -40.1986 -1.77636e-015 -7.12874 49.2353 -17.5129 -3.55271e-015 -4.4182 9.239 2.38542e-015 1.27222e-014 -0 9.4119 3.9773 -0.7758 35.1138 -52.6088 39.8872 0.7532 -40.9383 2.22045e-015 168.019 23.037 -169.816 3.55271e-015 -40.1986 0 7.12893 49.2345 17.5084 0 -4.4182 9.239 9.49365e-007 -1.44083e-007 -1.5544e-006 
1.35844 9.7449 31.9898 -7.01671e-015 7.01671e-015 180 2.22045e-016 8.7983 -4.7612 -0.000199769 -0.157142 -0.0897454 2.22045e-016 8.0291 0.4195 -0.000645682 -0.314283 -0.179492 0 9.9351 -2.2114 -0.000645648 -0.314273 -0.179487 0 22.3885 -0.4656 -0.120646 0.185939 -0.000661788 -0.0001 12.643 3.4389 -0.167268 -0.543606 -0.108816 2.2603 21.606 7.4023 -8.14982 -0.050722 -12.3217 13.5163 -1.1332 -5.0146 35.1604 -37.8982 22.2992 -0.0995 -28.05 -0.2431 -12.5097 -30.8115 -6.15224 0.0679 -23.3996 -0.1402 -30.8438 23.4061 12.6804 0.7932 -9.06901 2.5189 3.18055e-015 0 -0 -0.8272 -3.3923 0.5977 -0 -3.18055e-015 -0 -0.5649 -2.3158 0.4082 -0 -3.18055e-015 -0 0.9159 -9.20441 0.2193 3.18055e-015 0 -0 0.0117 -4.1944 -0.0248 -0.0128301 0.00232974 9.15805e-005 0.0071 -2.3249 -0.0142 3.18055e-015 -3.18055e-015 3.18055e-015 0.6113 -8.72311 -2.0637 3.18055e-015 0 -0 -0.1927 -3.8059 -0.2383 -0.016063 0.00299399 0.00086059 -0.1091 -2.1688 -0.1362 0 1.27222e-014 -0 -0.6151 -8.09471 -3.5641 3.18055e-015 0 -0 -0.4882 -2.341 -0.6462 -0.0125863 0.00312895 0.00283459 -0.3575 -1.7167 -0.4742 3.18055e-015 -3.18055e-015 -0 -1.42 -1.8761 1.4223 3.18055e-015 0 -0 -1.1471 -3.4929 2.6334 -0 -3.18055e-015 -0 -0.823 -2.3 1.6571 -0 -3.18055e-015 -0 -2.2603 21.606 7.4023 7.28121 0.11746 6.85334 -13.5187 -1.1334 -5.0155 -31.4683 -39.6243 -16.9764 0.0994 -28.0499 -0.2431 17.829 -44.3904 10.6961 -0.0679 -23.3996 -0.1402 30.8202 23.7179 -11.6546 -0.7932 -9.06911 2.5189 -6.36111e-015 0 1.59028e-015 0.8272 -3.3923 0.5977 -3.18055e-015 0 -0 0.565 -2.3158 0.4082 0 0 -0 -0.916 -9.20441 0.2193 -6.36111e-015 0 1.59028e-015 -0.0117 -4.1944 -0.0248 0.0129377 0.00232623 -8.87154e-005 -0.0071 -2.3249 -0.0142 3.18055e-015 -1.27222e-014 -1.59028e-015 -0.6113 -8.7231 -2.0637 -6.36111e-015 0 1.59028e-015 0.1927 -3.8059 -0.2383 0.0163205 0.0030332 -0.000876439 0.1091 -2.1688 -0.1362 -6.36111e-015 0 -1.59028e-015 0.6151 -8.0947 -3.564 -6.36111e-015 0 1.59028e-015 0.4882 -2.341 -0.6462 0.0145556 0.00367629 -0.00326462 0.3574 -1.7166 -0.4742 -8.82781e-032 3.18055e-015 1.59028e-015 1.4199 -1.8761 1.4221 -6.36111e-015 0 1.59028e-015 1.1472 -3.4929 2.6336 -3.18055e-015 0 -0 0.8229 -2.3 1.6571 0 0 -0 -9.412 3.9771 -0.7758 -35.1234 -52.606 -39.8978 -0.7531 -40.938 -3.55271e-015 -168.019 23.0373 169.812 3.55271e-015 -40.1986 -1.77636e-015 -7.12874 49.2353 -17.5129 -3.55271e-015 -4.4182 9.239 2.38542e-015 1.27222e-014 -0 9.4119 3.9773 -0.7758 35.1138 -52.6088 39.8872 0.7532 -40.9383 2.22045e-015 168.019 23.037 -169.816 3.55271e-015 -40.1986 0 7.12893 49.2345 17.5084 0 -4.4182 9.239 9.49365e-007 -1.44083e-007 -1.5544e-006 
